<?xml version="1.0" encoding="utf-8" standalone="no"?>
<!DOCTYPE svg PUBLIC "-//W3C//DTD SVG 1.1//EN"
  "http://www.w3.org/Graphics/SVG/1.1/DTD/svg11.dtd">
<!-- Created with matplotlib (http://matplotlib.org/) -->
<svg height="432pt" version="1.1" viewBox="0 0 576 432" width="576pt" xmlns="http://www.w3.org/2000/svg" xmlns:xlink="http://www.w3.org/1999/xlink">
 <defs>
  <style type="text/css">
*{stroke-linecap:butt;stroke-linejoin:round;stroke-miterlimit:100000;}
  </style>
 </defs>
 <g id="figure_1">
  <g id="patch_1">
   <path d="M 0 432 
L 576 432 
L 576 0 
L 0 0 
z
" style="fill:#ffffff;"/>
  </g>
  <g id="axes_1">
   <g id="patch_2">
    <path d="M 72 388.8 
L 518.4 388.8 
L 518.4 43.2 
L 72 43.2 
z
" style="fill:#ffffff;"/>
   </g>
   <g id="patch_3">
    <path d="M 72 388.8 
L 518.4 388.8 
" style="fill:none;stroke:#000000;stroke-linecap:square;stroke-linejoin:miter;"/>
   </g>
   <g id="patch_4">
    <path d="M 72 388.8 
L 72 43.2 
" style="fill:none;stroke:#000000;stroke-linecap:square;stroke-linejoin:miter;"/>
   </g>
   <g id="patch_5">
    <path d="M 72 43.2 
L 518.4 43.2 
" style="fill:none;stroke:#000000;stroke-linecap:square;stroke-linejoin:miter;"/>
   </g>
   <g id="patch_6">
    <path d="M 518.4 388.8 
L 518.4 43.2 
" style="fill:none;stroke:#000000;stroke-linecap:square;stroke-linejoin:miter;"/>
   </g>
   <g id="matplotlib.axis_1">
    <g id="xtick_1">
     <g id="line2d_1">
      <defs>
       <path d="M 0 0 
L 0 -4 
" id="m3c0a9a27b1" style="stroke:#000000;stroke-width:0.5;"/>
      </defs>
      <g>
       <use style="stroke:#000000;stroke-width:0.5;" x="72.0" xlink:href="#m3c0a9a27b1" y="388.8"/>
      </g>
     </g>
     <g id="line2d_2">
      <defs>
       <path d="M 0 0 
L 0 4 
" id="mc670202f8a" style="stroke:#000000;stroke-width:0.5;"/>
      </defs>
      <g>
       <use style="stroke:#000000;stroke-width:0.5;" x="72.0" xlink:href="#mc670202f8a" y="43.2"/>
      </g>
     </g>
     <g id="text_1">
      <!-- 0.0 -->
      <defs>
       <path d="M 10.6875 12.40625 
L 21 12.40625 
L 21 0 
L 10.6875 0 
z
" id="BitstreamVeraSans-Roman-2e"/>
       <path d="M 31.78125 66.40625 
Q 24.171875 66.40625 20.328125 58.90625 
Q 16.5 51.421875 16.5 36.375 
Q 16.5 21.390625 20.328125 13.890625 
Q 24.171875 6.390625 31.78125 6.390625 
Q 39.453125 6.390625 43.28125 13.890625 
Q 47.125 21.390625 47.125 36.375 
Q 47.125 51.421875 43.28125 58.90625 
Q 39.453125 66.40625 31.78125 66.40625 
M 31.78125 74.21875 
Q 44.046875 74.21875 50.515625 64.515625 
Q 56.984375 54.828125 56.984375 36.375 
Q 56.984375 17.96875 50.515625 8.265625 
Q 44.046875 -1.421875 31.78125 -1.421875 
Q 19.53125 -1.421875 13.0625 8.265625 
Q 6.59375 17.96875 6.59375 36.375 
Q 6.59375 54.828125 13.0625 64.515625 
Q 19.53125 74.21875 31.78125 74.21875 
" id="BitstreamVeraSans-Roman-30"/>
      </defs>
      <g transform="translate(62.458125 401.918125)scale(0.12 -0.12)">
       <use xlink:href="#BitstreamVeraSans-Roman-30"/>
       <use x="63.623046875" xlink:href="#BitstreamVeraSans-Roman-2e"/>
       <use x="95.41015625" xlink:href="#BitstreamVeraSans-Roman-30"/>
      </g>
     </g>
    </g>
    <g id="xtick_2">
     <g id="line2d_3">
      <g>
       <use style="stroke:#000000;stroke-width:0.5;" x="161.28" xlink:href="#m3c0a9a27b1" y="388.8"/>
      </g>
     </g>
     <g id="line2d_4">
      <g>
       <use style="stroke:#000000;stroke-width:0.5;" x="161.28" xlink:href="#mc670202f8a" y="43.2"/>
      </g>
     </g>
     <g id="text_2">
      <!-- 0.2 -->
      <defs>
       <path d="M 19.1875 8.296875 
L 53.609375 8.296875 
L 53.609375 0 
L 7.328125 0 
L 7.328125 8.296875 
Q 12.9375 14.109375 22.625 23.890625 
Q 32.328125 33.6875 34.8125 36.53125 
Q 39.546875 41.84375 41.421875 45.53125 
Q 43.3125 49.21875 43.3125 52.78125 
Q 43.3125 58.59375 39.234375 62.25 
Q 35.15625 65.921875 28.609375 65.921875 
Q 23.96875 65.921875 18.8125 64.3125 
Q 13.671875 62.703125 7.8125 59.421875 
L 7.8125 69.390625 
Q 13.765625 71.78125 18.9375 73 
Q 24.125 74.21875 28.421875 74.21875 
Q 39.75 74.21875 46.484375 68.546875 
Q 53.21875 62.890625 53.21875 53.421875 
Q 53.21875 48.921875 51.53125 44.890625 
Q 49.859375 40.875 45.40625 35.40625 
Q 44.1875 33.984375 37.640625 27.21875 
Q 31.109375 20.453125 19.1875 8.296875 
" id="BitstreamVeraSans-Roman-32"/>
      </defs>
      <g transform="translate(151.738125 401.918125)scale(0.12 -0.12)">
       <use xlink:href="#BitstreamVeraSans-Roman-30"/>
       <use x="63.623046875" xlink:href="#BitstreamVeraSans-Roman-2e"/>
       <use x="95.41015625" xlink:href="#BitstreamVeraSans-Roman-32"/>
      </g>
     </g>
    </g>
    <g id="xtick_3">
     <g id="line2d_5">
      <g>
       <use style="stroke:#000000;stroke-width:0.5;" x="250.56" xlink:href="#m3c0a9a27b1" y="388.8"/>
      </g>
     </g>
     <g id="line2d_6">
      <g>
       <use style="stroke:#000000;stroke-width:0.5;" x="250.56" xlink:href="#mc670202f8a" y="43.2"/>
      </g>
     </g>
     <g id="text_3">
      <!-- 0.4 -->
      <defs>
       <path d="M 37.796875 64.3125 
L 12.890625 25.390625 
L 37.796875 25.390625 
z
M 35.203125 72.90625 
L 47.609375 72.90625 
L 47.609375 25.390625 
L 58.015625 25.390625 
L 58.015625 17.1875 
L 47.609375 17.1875 
L 47.609375 0 
L 37.796875 0 
L 37.796875 17.1875 
L 4.890625 17.1875 
L 4.890625 26.703125 
z
" id="BitstreamVeraSans-Roman-34"/>
      </defs>
      <g transform="translate(241.018125 401.918125)scale(0.12 -0.12)">
       <use xlink:href="#BitstreamVeraSans-Roman-30"/>
       <use x="63.623046875" xlink:href="#BitstreamVeraSans-Roman-2e"/>
       <use x="95.41015625" xlink:href="#BitstreamVeraSans-Roman-34"/>
      </g>
     </g>
    </g>
    <g id="xtick_4">
     <g id="line2d_7">
      <g>
       <use style="stroke:#000000;stroke-width:0.5;" x="339.84" xlink:href="#m3c0a9a27b1" y="388.8"/>
      </g>
     </g>
     <g id="line2d_8">
      <g>
       <use style="stroke:#000000;stroke-width:0.5;" x="339.84" xlink:href="#mc670202f8a" y="43.2"/>
      </g>
     </g>
     <g id="text_4">
      <!-- 0.6 -->
      <defs>
       <path d="M 33.015625 40.375 
Q 26.375 40.375 22.484375 35.828125 
Q 18.609375 31.296875 18.609375 23.390625 
Q 18.609375 15.53125 22.484375 10.953125 
Q 26.375 6.390625 33.015625 6.390625 
Q 39.65625 6.390625 43.53125 10.953125 
Q 47.40625 15.53125 47.40625 23.390625 
Q 47.40625 31.296875 43.53125 35.828125 
Q 39.65625 40.375 33.015625 40.375 
M 52.59375 71.296875 
L 52.59375 62.3125 
Q 48.875 64.0625 45.09375 64.984375 
Q 41.3125 65.921875 37.59375 65.921875 
Q 27.828125 65.921875 22.671875 59.328125 
Q 17.53125 52.734375 16.796875 39.40625 
Q 19.671875 43.65625 24.015625 45.921875 
Q 28.375 48.1875 33.59375 48.1875 
Q 44.578125 48.1875 50.953125 41.515625 
Q 57.328125 34.859375 57.328125 23.390625 
Q 57.328125 12.15625 50.6875 5.359375 
Q 44.046875 -1.421875 33.015625 -1.421875 
Q 20.359375 -1.421875 13.671875 8.265625 
Q 6.984375 17.96875 6.984375 36.375 
Q 6.984375 53.65625 15.1875 63.9375 
Q 23.390625 74.21875 37.203125 74.21875 
Q 40.921875 74.21875 44.703125 73.484375 
Q 48.484375 72.75 52.59375 71.296875 
" id="BitstreamVeraSans-Roman-36"/>
      </defs>
      <g transform="translate(330.298125 401.918125)scale(0.12 -0.12)">
       <use xlink:href="#BitstreamVeraSans-Roman-30"/>
       <use x="63.623046875" xlink:href="#BitstreamVeraSans-Roman-2e"/>
       <use x="95.41015625" xlink:href="#BitstreamVeraSans-Roman-36"/>
      </g>
     </g>
    </g>
    <g id="xtick_5">
     <g id="line2d_9">
      <g>
       <use style="stroke:#000000;stroke-width:0.5;" x="429.12" xlink:href="#m3c0a9a27b1" y="388.8"/>
      </g>
     </g>
     <g id="line2d_10">
      <g>
       <use style="stroke:#000000;stroke-width:0.5;" x="429.12" xlink:href="#mc670202f8a" y="43.2"/>
      </g>
     </g>
     <g id="text_5">
      <!-- 0.8 -->
      <defs>
       <path d="M 31.78125 34.625 
Q 24.75 34.625 20.71875 30.859375 
Q 16.703125 27.09375 16.703125 20.515625 
Q 16.703125 13.921875 20.71875 10.15625 
Q 24.75 6.390625 31.78125 6.390625 
Q 38.8125 6.390625 42.859375 10.171875 
Q 46.921875 13.96875 46.921875 20.515625 
Q 46.921875 27.09375 42.890625 30.859375 
Q 38.875 34.625 31.78125 34.625 
M 21.921875 38.8125 
Q 15.578125 40.375 12.03125 44.71875 
Q 8.5 49.078125 8.5 55.328125 
Q 8.5 64.0625 14.71875 69.140625 
Q 20.953125 74.21875 31.78125 74.21875 
Q 42.671875 74.21875 48.875 69.140625 
Q 55.078125 64.0625 55.078125 55.328125 
Q 55.078125 49.078125 51.53125 44.71875 
Q 48 40.375 41.703125 38.8125 
Q 48.828125 37.15625 52.796875 32.3125 
Q 56.78125 27.484375 56.78125 20.515625 
Q 56.78125 9.90625 50.3125 4.234375 
Q 43.84375 -1.421875 31.78125 -1.421875 
Q 19.734375 -1.421875 13.25 4.234375 
Q 6.78125 9.90625 6.78125 20.515625 
Q 6.78125 27.484375 10.78125 32.3125 
Q 14.796875 37.15625 21.921875 38.8125 
M 18.3125 54.390625 
Q 18.3125 48.734375 21.84375 45.5625 
Q 25.390625 42.390625 31.78125 42.390625 
Q 38.140625 42.390625 41.71875 45.5625 
Q 45.3125 48.734375 45.3125 54.390625 
Q 45.3125 60.0625 41.71875 63.234375 
Q 38.140625 66.40625 31.78125 66.40625 
Q 25.390625 66.40625 21.84375 63.234375 
Q 18.3125 60.0625 18.3125 54.390625 
" id="BitstreamVeraSans-Roman-38"/>
      </defs>
      <g transform="translate(419.578125 401.918125)scale(0.12 -0.12)">
       <use xlink:href="#BitstreamVeraSans-Roman-30"/>
       <use x="63.623046875" xlink:href="#BitstreamVeraSans-Roman-2e"/>
       <use x="95.41015625" xlink:href="#BitstreamVeraSans-Roman-38"/>
      </g>
     </g>
    </g>
    <g id="xtick_6">
     <g id="line2d_11">
      <g>
       <use style="stroke:#000000;stroke-width:0.5;" x="518.4" xlink:href="#m3c0a9a27b1" y="388.8"/>
      </g>
     </g>
     <g id="line2d_12">
      <g>
       <use style="stroke:#000000;stroke-width:0.5;" x="518.4" xlink:href="#mc670202f8a" y="43.2"/>
      </g>
     </g>
     <g id="text_6">
      <!-- 1.0 -->
      <defs>
       <path d="M 12.40625 8.296875 
L 28.515625 8.296875 
L 28.515625 63.921875 
L 10.984375 60.40625 
L 10.984375 69.390625 
L 28.421875 72.90625 
L 38.28125 72.90625 
L 38.28125 8.296875 
L 54.390625 8.296875 
L 54.390625 0 
L 12.40625 0 
z
" id="BitstreamVeraSans-Roman-31"/>
      </defs>
      <g transform="translate(508.858125 401.918125)scale(0.12 -0.12)">
       <use xlink:href="#BitstreamVeraSans-Roman-31"/>
       <use x="63.623046875" xlink:href="#BitstreamVeraSans-Roman-2e"/>
       <use x="95.41015625" xlink:href="#BitstreamVeraSans-Roman-30"/>
      </g>
     </g>
    </g>
   </g>
   <g id="matplotlib.axis_2">
    <g id="ytick_1">
     <g id="line2d_13">
      <defs>
       <path d="M 0 0 
L 4 0 
" id="m6c5b15129e" style="stroke:#000000;stroke-width:0.5;"/>
      </defs>
      <g>
       <use style="stroke:#000000;stroke-width:0.5;" x="72.0" xlink:href="#m6c5b15129e" y="388.8"/>
      </g>
     </g>
     <g id="line2d_14">
      <defs>
       <path d="M 0 0 
L -4 0 
" id="m593b918e3a" style="stroke:#000000;stroke-width:0.5;"/>
      </defs>
      <g>
       <use style="stroke:#000000;stroke-width:0.5;" x="518.4" xlink:href="#m593b918e3a" y="388.8"/>
      </g>
     </g>
     <g id="text_7">
      <!-- 0.0 -->
      <g transform="translate(48.91625 392.11125)scale(0.12 -0.12)">
       <use xlink:href="#BitstreamVeraSans-Roman-30"/>
       <use x="63.623046875" xlink:href="#BitstreamVeraSans-Roman-2e"/>
       <use x="95.41015625" xlink:href="#BitstreamVeraSans-Roman-30"/>
      </g>
     </g>
    </g>
    <g id="ytick_2">
     <g id="line2d_15">
      <g>
       <use style="stroke:#000000;stroke-width:0.5;" x="72.0" xlink:href="#m6c5b15129e" y="319.68"/>
      </g>
     </g>
     <g id="line2d_16">
      <g>
       <use style="stroke:#000000;stroke-width:0.5;" x="518.4" xlink:href="#m593b918e3a" y="319.68"/>
      </g>
     </g>
     <g id="text_8">
      <!-- 0.2 -->
      <g transform="translate(48.91625 322.99125)scale(0.12 -0.12)">
       <use xlink:href="#BitstreamVeraSans-Roman-30"/>
       <use x="63.623046875" xlink:href="#BitstreamVeraSans-Roman-2e"/>
       <use x="95.41015625" xlink:href="#BitstreamVeraSans-Roman-32"/>
      </g>
     </g>
    </g>
    <g id="ytick_3">
     <g id="line2d_17">
      <g>
       <use style="stroke:#000000;stroke-width:0.5;" x="72.0" xlink:href="#m6c5b15129e" y="250.56"/>
      </g>
     </g>
     <g id="line2d_18">
      <g>
       <use style="stroke:#000000;stroke-width:0.5;" x="518.4" xlink:href="#m593b918e3a" y="250.56"/>
      </g>
     </g>
     <g id="text_9">
      <!-- 0.4 -->
      <g transform="translate(48.91625 253.87125)scale(0.12 -0.12)">
       <use xlink:href="#BitstreamVeraSans-Roman-30"/>
       <use x="63.623046875" xlink:href="#BitstreamVeraSans-Roman-2e"/>
       <use x="95.41015625" xlink:href="#BitstreamVeraSans-Roman-34"/>
      </g>
     </g>
    </g>
    <g id="ytick_4">
     <g id="line2d_19">
      <g>
       <use style="stroke:#000000;stroke-width:0.5;" x="72.0" xlink:href="#m6c5b15129e" y="181.44"/>
      </g>
     </g>
     <g id="line2d_20">
      <g>
       <use style="stroke:#000000;stroke-width:0.5;" x="518.4" xlink:href="#m593b918e3a" y="181.44"/>
      </g>
     </g>
     <g id="text_10">
      <!-- 0.6 -->
      <g transform="translate(48.91625 184.75125)scale(0.12 -0.12)">
       <use xlink:href="#BitstreamVeraSans-Roman-30"/>
       <use x="63.623046875" xlink:href="#BitstreamVeraSans-Roman-2e"/>
       <use x="95.41015625" xlink:href="#BitstreamVeraSans-Roman-36"/>
      </g>
     </g>
    </g>
    <g id="ytick_5">
     <g id="line2d_21">
      <g>
       <use style="stroke:#000000;stroke-width:0.5;" x="72.0" xlink:href="#m6c5b15129e" y="112.32"/>
      </g>
     </g>
     <g id="line2d_22">
      <g>
       <use style="stroke:#000000;stroke-width:0.5;" x="518.4" xlink:href="#m593b918e3a" y="112.32"/>
      </g>
     </g>
     <g id="text_11">
      <!-- 0.8 -->
      <g transform="translate(48.91625 115.63125)scale(0.12 -0.12)">
       <use xlink:href="#BitstreamVeraSans-Roman-30"/>
       <use x="63.623046875" xlink:href="#BitstreamVeraSans-Roman-2e"/>
       <use x="95.41015625" xlink:href="#BitstreamVeraSans-Roman-38"/>
      </g>
     </g>
    </g>
    <g id="ytick_6">
     <g id="line2d_23">
      <g>
       <use style="stroke:#000000;stroke-width:0.5;" x="72.0" xlink:href="#m6c5b15129e" y="43.2"/>
      </g>
     </g>
     <g id="line2d_24">
      <g>
       <use style="stroke:#000000;stroke-width:0.5;" x="518.4" xlink:href="#m593b918e3a" y="43.2"/>
      </g>
     </g>
     <g id="text_12">
      <!-- 1.0 -->
      <g transform="translate(48.91625 46.51125)scale(0.12 -0.12)">
       <use xlink:href="#BitstreamVeraSans-Roman-31"/>
       <use x="63.623046875" xlink:href="#BitstreamVeraSans-Roman-2e"/>
       <use x="95.41015625" xlink:href="#BitstreamVeraSans-Roman-30"/>
      </g>
     </g>
    </g>
   </g>
  </g>
  <g id="patch_7">
   <path d="M 72 388.8 
L 518.4 388.8 
L 518.4 43.2 
L 72 43.2 
z
" style="fill:#ffffff;"/>
  </g>
  <g id="pane3d_1">
   <g id="patch_8">
    <path d="M 258.939234 227.701291 
L 131.177218 312.43458 
L 121.926546 141.921 
L 256.812132 65.789882 
" style="fill:#f2f2f2;opacity:0.5;stroke:#f2f2f2;stroke-linejoin:miter;"/>
   </g>
  </g>
  <g id="pane3d_2">
   <g id="patch_9">
    <path d="M 258.939234 227.701291 
L 465.901687 275.072667 
L 474.560748 108.278886 
L 256.812132 65.789882 
" style="fill:#e6e6e6;opacity:0.5;stroke:#e6e6e6;stroke-linejoin:miter;"/>
   </g>
  </g>
  <g id="pane3d_3">
   <g id="patch_10">
    <path d="M 258.939234 227.701291 
L 465.901687 275.072667 
L 348.929684 367.606266 
L 131.177218 312.43458 
" style="fill:#ececec;opacity:0.5;stroke:#ececec;stroke-linejoin:miter;"/>
   </g>
  </g>
  <g id="axis3d_1">
   <g id="line2d_25">
    <path d="M 131.177218 312.43458 
L 348.929684 367.606266 
" style="fill:none;stroke:#000000;stroke-linecap:square;stroke-width:0.75;"/>
   </g>
   <g id="text_13">
    <!--   单位：m -->
    <defs>
     <path d="M 2.734375 45.3125 
Q 4.6875 45.3125 6.640625 45.703125 
Q 8.59375 46.09375 9.765625 46.875 
L 10.546875 46.875 
L 10.546875 40.234375 
Q 12.5 43.359375 14.84375 44.71875 
Q 17.1875 46.09375 19.921875 46.09375 
Q 23.4375 46.09375 25.390625 44.71875 
Q 27.34375 43.359375 27.734375 40.234375 
Q 29.6875 43.359375 32.21875 44.71875 
Q 34.765625 46.09375 37.5 46.09375 
Q 42.1875 46.09375 43.9375 43.359375 
Q 45.703125 40.625 45.703125 36.328125 
L 45.703125 6.640625 
Q 45.703125 5.078125 46.484375 4.484375 
Q 47.265625 3.90625 48.828125 3.90625 
L 49.609375 3.90625 
L 49.609375 1.5625 
L 36.328125 1.5625 
L 36.328125 3.90625 
L 37.109375 3.90625 
Q 38.671875 3.90625 39.453125 4.484375 
Q 40.234375 5.078125 40.234375 6.640625 
L 40.234375 35.9375 
Q 40.234375 40.234375 39.25 41.59375 
Q 38.28125 42.96875 36.328125 42.96875 
Q 33.59375 42.96875 31.4375 41.015625 
Q 29.296875 39.0625 28.125 35.546875 
L 28.125 6.640625 
Q 28.125 5.078125 28.90625 4.484375 
Q 29.6875 3.90625 31.25 3.90625 
L 32.03125 3.90625 
L 32.03125 1.5625 
L 18.75 1.5625 
L 18.75 3.90625 
L 19.53125 3.90625 
Q 21.09375 3.90625 21.875 4.484375 
Q 22.65625 5.078125 22.65625 6.640625 
L 22.65625 35.9375 
Q 22.65625 39.453125 21.875 41.203125 
Q 21.09375 42.96875 18.75 42.96875 
Q 16.015625 42.96875 13.859375 41.015625 
Q 11.71875 39.0625 10.546875 35.15625 
L 10.546875 6.640625 
Q 10.546875 5.078125 11.328125 4.484375 
Q 12.109375 3.90625 13.671875 3.90625 
L 14.453125 3.90625 
L 14.453125 1.5625 
L 1.171875 1.5625 
L 1.171875 3.90625 
L 1.953125 3.90625 
Q 3.515625 3.90625 4.296875 4.484375 
Q 5.078125 5.078125 5.078125 6.640625 
L 5.078125 40.625 
Q 5.078125 41.796875 4.6875 42.375 
Q 4.296875 42.96875 3.125 42.96875 
L 1.5625 42.96875 
L 1.5625 45.3125 
z
" id="SimSun-6d"/>
     <path d="M 21.875 12.109375 
Q 26.5625 8.984375 26.359375 5.265625 
Q 26.171875 1.5625 23.4375 0 
Q 20.703125 -1.5625 19.53125 -1.5625 
Q 18.359375 -1.5625 15.625 0 
Q 12.890625 1.5625 12.6875 5.46875 
Q 12.5 9.375 15.03125 10.734375 
Q 17.578125 12.109375 19.53125 12.109375 
Q 21.875 12.109375 26.5625 8.984375 
M 21.484375 35.546875 
Q 26.953125 32.8125 26.953125 28.703125 
Q 26.953125 24.609375 23.828125 23.234375 
Q 20.703125 21.875 19.53125 21.875 
Q 17.578125 21.875 15.03125 23.625 
Q 12.5 25.390625 12.6875 29.09375 
Q 12.890625 32.8125 15.625 34.171875 
Q 18.359375 35.546875 19.921875 35.546875 
Q 21.484375 35.546875 26.953125 32.8125 
" id="SimSun-ff1a"/>
     <path d="M 25 59.375 
L 25 46.484375 
L 46.09375 46.484375 
L 46.09375 59.375 
z
M 51.5625 59.375 
L 51.5625 46.484375 
L 73.828125 46.484375 
L 73.828125 59.375 
z
M 25 44.140625 
L 25 30.859375 
L 46.09375 30.859375 
L 46.09375 44.140625 
z
M 51.5625 44.140625 
L 51.5625 30.859375 
L 73.828125 30.859375 
L 73.828125 44.140625 
z
M 28.515625 80.46875 
L 29.296875 81.640625 
Q 34.765625 78.515625 38.859375 75.1875 
Q 42.96875 71.875 42.765625 69.140625 
Q 42.578125 66.40625 41.203125 65.03125 
Q 39.84375 63.671875 39.453125 63.671875 
Q 37.890625 63.671875 36.328125 68.359375 
Q 33.984375 74.21875 28.515625 80.46875 
M 51.5625 14.0625 
Q 51.5625 -1.953125 51.953125 -7.03125 
L 45.703125 -9.765625 
Q 46.09375 3.90625 46.09375 14.0625 
L 12.890625 14.0625 
L 7.8125 13.28125 
L 4.6875 16.40625 
L 46.09375 16.40625 
L 46.09375 28.515625 
L 25 28.515625 
L 25 23.828125 
L 19.140625 21.484375 
Q 19.53125 32.421875 19.53125 43.359375 
Q 19.53125 54.296875 19.140625 65.234375 
L 25.390625 61.71875 
L 55.078125 61.71875 
Q 57.8125 66.015625 60.734375 72.0625 
Q 63.671875 78.125 64.84375 82.421875 
L 72.65625 76.5625 
Q 69.53125 75.390625 65.8125 71.484375 
Q 62.109375 67.578125 57.421875 61.71875 
L 73.046875 61.71875 
L 76.171875 65.234375 
L 82.421875 60.546875 
L 78.90625 57.8125 
Q 78.90625 33.984375 79.296875 26.5625 
L 73.828125 24.21875 
L 73.828125 28.515625 
L 51.5625 28.515625 
L 51.5625 16.40625 
L 80.859375 16.40625 
L 87.109375 22.65625 
L 95.703125 14.0625 
z
" id="SimSun-5355"/>
     <path d="M 19.53125 -9.375 
Q 19.921875 2.34375 19.921875 48.4375 
Q 11.71875 34.765625 5.078125 27.734375 
L 3.90625 28.515625 
Q 11.328125 40.234375 17.375 53.90625 
Q 23.4375 67.578125 26.5625 81.640625 
L 35.546875 76.953125 
L 32.03125 75 
Q 25.78125 60.9375 23.046875 54.6875 
L 28.125 51.171875 
L 25 48.828125 
Q 25 1.953125 25.390625 -6.25 
z
M 51.5625 80.078125 
L 52.734375 80.859375 
Q 64.0625 72.265625 64.25 68.359375 
Q 64.453125 64.453125 62.5 62.890625 
Q 60.546875 61.328125 60.15625 61.328125 
Q 58.203125 61.328125 57.8125 65.625 
Q 56.640625 71.484375 51.5625 80.078125 
M 31.640625 58.203125 
L 78.90625 58.203125 
L 84.375 63.671875 
L 92.1875 55.859375 
L 44.140625 55.859375 
Q 39.453125 55.859375 35.15625 54.6875 
z
M 40.625 46.875 
L 41.796875 47.65625 
Q 51.5625 32.03125 53.125 26.75 
Q 54.6875 21.484375 54.6875 18.75 
Q 54.6875 14.84375 52.53125 12.5 
Q 50.390625 10.15625 49.609375 10.15625 
Q 48.4375 10.15625 48.4375 12.890625 
Q 48.046875 17.578125 46.484375 26.171875 
Q 44.921875 34.765625 40.625 46.875 
M 73.828125 51.953125 
L 83.203125 46.875 
Q 79.6875 44.921875 76.171875 33.203125 
Q 72.65625 21.484375 65.234375 -0.390625 
L 82.8125 -0.390625 
L 88.28125 5.078125 
L 96.09375 -2.734375 
L 42.1875 -2.734375 
Q 37.109375 -2.734375 32.8125 -3.90625 
L 29.296875 -0.390625 
L 62.5 -0.390625 
Q 67.1875 15.625 70.3125 30.65625 
Q 73.4375 45.703125 73.828125 51.953125 
" id="SimSun-4f4d"/>
     <path d="M 0 0 
z
" id="SimSun-20"/>
    </defs>
    <g transform="translate(189.570975919 368.981327713)rotate(-345.7822355977489)scale(0.14 -0.14)">
     <use xlink:href="#SimSun-20"/>
     <use x="50.0" xlink:href="#SimSun-20"/>
     <use x="100.0" xlink:href="#SimSun-5355"/>
     <use x="200.0" xlink:href="#SimSun-4f4d"/>
     <use x="300.0" xlink:href="#SimSun-ff1a"/>
     <use x="400.0" xlink:href="#SimSun-6d"/>
    </g>
   </g>
   <g id="Line3DCollection_1">
    <path d="M 135.341407 313.489655 
L 262.91012 228.610182 
L 260.98105 66.603357 
" style="fill:none;stroke:#e6e6e6;"/>
    <path d="M 168.925005 321.998692 
L 294.916126 235.935996 
L 294.595943 73.162588 
" style="fill:none;stroke:#e6e6e6;"/>
    <path d="M 202.996171 330.631263 
L 327.352943 243.360419 
L 328.6864 79.814614 
" style="fill:none;stroke:#e6e6e6;"/>
    <path d="M 237.565599 339.390079 
L 360.229327 250.885453 
L 363.262586 86.56142 
" style="fill:none;stroke:#e6e6e6;"/>
    <path d="M 272.644301 348.277928 
L 393.554274 258.513158 
L 398.334956 93.405046 
" style="fill:none;stroke:#e6e6e6;"/>
    <path d="M 308.243613 357.297684 
L 427.337028 266.245651 
L 433.914269 100.347591 
" style="fill:none;stroke:#e6e6e6;"/>
    <path d="M 344.375213 366.452305 
L 461.587089 274.085104 
L 470.011596 107.391216 
" style="fill:none;stroke:#e6e6e6;"/>
   </g>
   <g id="xtick_7">
    <g id="line2d_26">
     <path d="M 136.440324 312.758477 
L 133.139482 314.954734 
" style="fill:none;stroke:#000000;stroke-linecap:square;"/>
    </g>
    <g id="text_14">
     <!-- 0 -->
     <g transform="translate(124.013947977 337.365111833)scale(0.12 -0.12)">
      <use xlink:href="#BitstreamVeraSans-Roman-30"/>
     </g>
    </g>
   </g>
   <g id="xtick_8">
    <g id="line2d_27">
     <path d="M 170.01089 321.25694 
L 166.749164 323.484977 
" style="fill:none;stroke:#000000;stroke-linecap:square;"/>
    </g>
    <g id="text_15">
     <!-- 5 -->
     <defs>
      <path d="M 10.796875 72.90625 
L 49.515625 72.90625 
L 49.515625 64.59375 
L 19.828125 64.59375 
L 19.828125 46.734375 
Q 21.96875 47.46875 24.109375 47.828125 
Q 26.265625 48.1875 28.421875 48.1875 
Q 40.625 48.1875 47.75 41.5 
Q 54.890625 34.8125 54.890625 23.390625 
Q 54.890625 11.625 47.5625 5.09375 
Q 40.234375 -1.421875 26.90625 -1.421875 
Q 22.3125 -1.421875 17.546875 -0.640625 
Q 12.796875 0.140625 7.71875 1.703125 
L 7.71875 11.625 
Q 12.109375 9.234375 16.796875 8.0625 
Q 21.484375 6.890625 26.703125 6.890625 
Q 35.15625 6.890625 40.078125 11.328125 
Q 45.015625 15.765625 45.015625 23.390625 
Q 45.015625 31 40.078125 35.4375 
Q 35.15625 39.890625 26.703125 39.890625 
Q 22.75 39.890625 18.8125 39.015625 
Q 14.890625 38.140625 10.796875 36.28125 
z
" id="BitstreamVeraSans-Roman-35"/>
     </defs>
     <g transform="translate(157.594231901 345.99355531)scale(0.12 -0.12)">
      <use xlink:href="#BitstreamVeraSans-Roman-35"/>
     </g>
    </g>
   </g>
   <g id="xtick_9">
    <g id="line2d_28">
     <path d="M 204.068528 329.878707 
L 200.847407 332.139218 
" style="fill:none;stroke:#000000;stroke-linecap:square;"/>
    </g>
    <g id="text_16">
     <!-- 10 -->
     <g transform="translate(187.845279124 354.747457889)scale(0.12 -0.12)">
      <use xlink:href="#BitstreamVeraSans-Roman-31"/>
      <use x="63.623046875" xlink:href="#BitstreamVeraSans-Roman-30"/>
     </g>
    </g>
   </g>
   <g id="xtick_10">
    <g id="line2d_29">
     <path d="M 238.623915 338.62648 
L 235.444941 340.920181 
" style="fill:none;stroke:#000000;stroke-linecap:square;"/>
    </g>
    <g id="text_17">
     <!-- 15 -->
     <g transform="translate(222.412816788 363.629575906)scale(0.12 -0.12)">
      <use xlink:href="#BitstreamVeraSans-Roman-31"/>
      <use x="63.623046875" xlink:href="#BitstreamVeraSans-Roman-35"/>
     </g>
    </g>
   </g>
   <g id="xtick_11">
    <g id="line2d_30">
     <path d="M 273.688045 347.503043 
L 270.552814 349.830669 
" style="fill:none;stroke:#000000;stroke-linecap:square;"/>
    </g>
    <g id="text_18">
     <!-- 20 -->
     <g transform="translate(257.490388584 372.642747035)scale(0.12 -0.12)">
      <use xlink:href="#BitstreamVeraSans-Roman-32"/>
      <use x="63.623046875" xlink:href="#BitstreamVeraSans-Roman-30"/>
     </g>
    </g>
   </g>
   <g id="xtick_12">
    <g id="line2d_31">
     <path d="M 309.272234 356.51126 
L 306.1824 358.87357 
" style="fill:none;stroke:#000000;stroke-linecap:square;"/>
    </g>
    <g id="text_19">
     <!-- 25 -->
     <g transform="translate(293.089366519 381.789893308)scale(0.12 -0.12)">
      <use xlink:href="#BitstreamVeraSans-Roman-32"/>
      <use x="63.623046875" xlink:href="#BitstreamVeraSans-Roman-35"/>
     </g>
    </g>
   </g>
   <g id="xtick_13">
    <g id="line2d_32">
     <path d="M 345.388141 365.654082 
L 342.345417 368.051858 
" style="fill:none;stroke:#000000;stroke-linecap:square;"/>
    </g>
    <g id="text_20">
     <!-- 30 -->
     <defs>
      <path d="M 40.578125 39.3125 
Q 47.65625 37.796875 51.625 33 
Q 55.609375 28.21875 55.609375 21.1875 
Q 55.609375 10.40625 48.1875 4.484375 
Q 40.765625 -1.421875 27.09375 -1.421875 
Q 22.515625 -1.421875 17.65625 -0.515625 
Q 12.796875 0.390625 7.625 2.203125 
L 7.625 11.71875 
Q 11.71875 9.328125 16.59375 8.109375 
Q 21.484375 6.890625 26.8125 6.890625 
Q 36.078125 6.890625 40.9375 10.546875 
Q 45.796875 14.203125 45.796875 21.1875 
Q 45.796875 27.640625 41.28125 31.265625 
Q 36.765625 34.90625 28.71875 34.90625 
L 20.21875 34.90625 
L 20.21875 43.015625 
L 29.109375 43.015625 
Q 36.375 43.015625 40.234375 45.921875 
Q 44.09375 48.828125 44.09375 54.296875 
Q 44.09375 59.90625 40.109375 62.90625 
Q 36.140625 65.921875 28.71875 65.921875 
Q 24.65625 65.921875 20.015625 65.03125 
Q 15.375 64.15625 9.8125 62.3125 
L 9.8125 71.09375 
Q 15.4375 72.65625 20.34375 73.4375 
Q 25.25 74.21875 29.59375 74.21875 
Q 40.828125 74.21875 47.359375 69.109375 
Q 53.90625 64.015625 53.90625 55.328125 
Q 53.90625 49.265625 50.4375 45.09375 
Q 46.96875 40.921875 40.578125 39.3125 
" id="BitstreamVeraSans-Roman-33"/>
     </defs>
     <g transform="translate(329.221463207 391.074024278)scale(0.12 -0.12)">
      <use xlink:href="#BitstreamVeraSans-Roman-33"/>
      <use x="63.623046875" xlink:href="#BitstreamVeraSans-Roman-30"/>
     </g>
    </g>
   </g>
  </g>
  <g id="axis3d_2">
   <g id="line2d_33">
    <path d="M 465.901687 275.072667 
L 348.929684 367.606266 
" style="fill:none;stroke:#000000;stroke-linecap:square;stroke-width:0.75;"/>
   </g>
   <g id="text_21">
    <!--   单位：m -->
    <g transform="translate(415.097873758 369.890295194)rotate(-38.346631744304915)scale(0.14 -0.14)">
     <use xlink:href="#SimSun-20"/>
     <use x="50.0" xlink:href="#SimSun-20"/>
     <use x="100.0" xlink:href="#SimSun-5355"/>
     <use x="200.0" xlink:href="#SimSun-4f4d"/>
     <use x="300.0" xlink:href="#SimSun-ff1a"/>
     <use x="400.0" xlink:href="#SimSun-6d"/>
    </g>
   </g>
   <g id="Line3DCollection_2">
    <path d="M 254.31417 67.199763 
L 256.564121 229.276494 
L 463.734308 276.787226 
" style="fill:none;stroke:#e6e6e6;"/>
    <path d="M 234.055372 78.634083 
L 237.314336 242.04318 
L 446.158198 290.691243 
" style="fill:none;stroke:#e6e6e6;"/>
    <path d="M 213.294627 90.351708 
L 217.611014 255.110658 
L 428.1496 304.937391 
" style="fill:none;stroke:#e6e6e6;"/>
    <path d="M 192.013047 102.363299 
L 197.437937 268.489682 
L 409.692352 319.538453 
" style="fill:none;stroke:#e6e6e6;"/>
    <path d="M 170.190782 114.680059 
L 176.778102 282.191531 
L 390.769477 334.507862 
" style="fill:none;stroke:#e6e6e6;"/>
    <path d="M 147.806962 127.313768 
L 155.613677 296.228029 
L 371.363131 349.859733 
" style="fill:none;stroke:#e6e6e6;"/>
    <path d="M 124.83963 140.276819 
L 133.925947 310.61159 
L 351.454544 365.608914 
" style="fill:none;stroke:#e6e6e6;"/>
   </g>
   <g id="xtick_14">
    <g id="line2d_34">
     <path d="M 462.005733 276.390809 
L 467.195055 277.580886 
" style="fill:none;stroke:#000000;stroke-linecap:square;"/>
    </g>
    <g id="text_22">
     <!-- −3 -->
     <defs>
      <path d="M 10.59375 35.5 
L 73.1875 35.5 
L 73.1875 27.203125 
L 10.59375 27.203125 
z
" id="BitstreamVeraSans-Roman-2212"/>
     </defs>
     <g transform="translate(466.987048115 298.013070065)scale(0.12 -0.12)">
      <use xlink:href="#BitstreamVeraSans-Roman-2212"/>
      <use x="83.7890625" xlink:href="#BitstreamVeraSans-Roman-33"/>
     </g>
    </g>
   </g>
   <g id="xtick_15">
    <g id="line2d_35">
     <path d="M 444.414786 290.285133 
L 449.648694 291.504319 
" style="fill:none;stroke:#000000;stroke-linecap:square;"/>
    </g>
    <g id="text_23">
     <!-- −2 -->
     <g transform="translate(449.564851823 312.058697179)scale(0.12 -0.12)">
      <use xlink:href="#BitstreamVeraSans-Roman-2212"/>
      <use x="83.7890625" xlink:href="#BitstreamVeraSans-Roman-32"/>
     </g>
    </g>
   </g>
   <g id="xtick_16">
    <g id="line2d_36">
     <path d="M 426.39114 304.521228 
L 431.67027 305.770604 
" style="fill:none;stroke:#000000;stroke-linecap:square;"/>
    </g>
    <g id="text_24">
     <!-- −1 -->
     <g transform="translate(431.714126319 326.449800914)scale(0.12 -0.12)">
      <use xlink:href="#BitstreamVeraSans-Roman-2212"/>
      <use x="83.7890625" xlink:href="#BitstreamVeraSans-Roman-31"/>
     </g>
    </g>
   </g>
   <g id="xtick_17">
    <g id="line2d_37">
     <path d="M 407.91863 319.11186 
L 413.243626 320.392561 
" style="fill:none;stroke:#000000;stroke-linecap:square;"/>
    </g>
    <g id="text_25">
     <!-- 0 -->
     <g transform="translate(418.446676607 341.199286379)scale(0.12 -0.12)">
      <use xlink:href="#BitstreamVeraSans-Roman-30"/>
     </g>
    </g>
   </g>
   <g id="xtick_18">
    <g id="line2d_38">
     <path d="M 388.980278 334.070441 
L 394.351787 335.38366 
" style="fill:none;stroke:#000000;stroke-linecap:square;"/>
    </g>
    <g id="text_26">
     <!-- 1 -->
     <g transform="translate(399.690062865 356.32070954)scale(0.12 -0.12)">
      <use xlink:href="#BitstreamVeraSans-Roman-31"/>
     </g>
    </g>
   </g>
   <g id="xtick_19">
    <g id="line2d_39">
     <path d="M 369.558238 349.411067 
L 374.976914 350.758059 
" style="fill:none;stroke:#000000;stroke-linecap:square;"/>
    </g>
    <g id="text_27">
     <!-- 2 -->
     <g transform="translate(380.454423908 371.828318774)scale(0.12 -0.12)">
      <use xlink:href="#BitstreamVeraSans-Roman-32"/>
     </g>
    </g>
   </g>
   <g id="xtick_20">
    <g id="line2d_40">
     <path d="M 349.633738 365.148563 
L 355.10024 366.530648 
" style="fill:none;stroke:#000000;stroke-linecap:square;"/>
    </g>
    <g id="text_28">
     <!-- 3 -->
     <g transform="translate(360.721171633 387.737099649)scale(0.12 -0.12)">
      <use xlink:href="#BitstreamVeraSans-Roman-33"/>
     </g>
    </g>
   </g>
  </g>
  <g id="axis3d_3">
   <g id="line2d_41">
    <path d="M 465.901687 275.072667 
L 474.560748 108.278886 
" style="fill:none;stroke:#000000;stroke-linecap:square;stroke-width:0.75;"/>
   </g>
   <g id="text_29">
    <!--   单位：m -->
    <g transform="translate(514.847185125 221.183865786)rotate(-87.02817060299122)scale(0.14 -0.14)">
     <use xlink:href="#SimSun-20"/>
     <use x="50.0" xlink:href="#SimSun-20"/>
     <use x="100.0" xlink:href="#SimSun-5355"/>
     <use x="200.0" xlink:href="#SimSun-4f4d"/>
     <use x="300.0" xlink:href="#SimSun-ff1a"/>
     <use x="400.0" xlink:href="#SimSun-6d"/>
    </g>
   </g>
   <g id="Line3DCollection_3">
    <path d="M 466.066381 271.900274 
L 258.89869 224.615172 
L 131.001569 309.196909 
" style="fill:none;stroke:#e6e6e6;"/>
    <path d="M 468.068718 233.330576 
L 258.406032 187.114858 
L 128.865116 269.816616 
" style="fill:none;stroke:#e6e6e6;"/>
    <path d="M 470.120301 193.812297 
L 257.901772 148.731448 
L 126.674356 229.435289 
" style="fill:none;stroke:#e6e6e6;"/>
    <path d="M 472.222968 153.310006 
L 257.385496 109.433377 
L 124.42719 188.014268 
" style="fill:none;stroke:#e6e6e6;"/>
    <path d="M 474.378652 111.786488 
L 256.856768 69.187556 
L 122.121412 145.512876 
" style="fill:none;stroke:#e6e6e6;"/>
   </g>
   <g id="xtick_21">
    <g id="line2d_42">
     <path d="M 464.337863 271.505747 
L 469.527014 272.690148 
" style="fill:none;stroke:#000000;stroke-linecap:square;"/>
    </g>
    <g id="text_30">
     <!-- 0 -->
     <g transform="translate(481.090756398 278.921077736)scale(0.12 -0.12)">
      <use xlink:href="#BitstreamVeraSans-Roman-30"/>
     </g>
    </g>
   </g>
   <g id="xtick_22">
    <g id="line2d_43">
     <path d="M 466.318508 232.944779 
L 471.572824 234.102983 
" style="fill:none;stroke:#000000;stroke-linecap:square;"/>
    </g>
    <g id="text_31">
     <!-- 5 -->
     <g transform="translate(483.317819164 240.397824574)scale(0.12 -0.12)">
      <use xlink:href="#BitstreamVeraSans-Roman-35"/>
     </g>
    </g>
   </g>
   <g id="xtick_23">
    <g id="line2d_44">
     <path d="M 468.347848 193.435781 
L 473.668985 194.566132 
" style="fill:none;stroke:#000000;stroke-linecap:square;"/>
    </g>
    <g id="text_32">
     <!-- 10 -->
     <g transform="translate(481.782050901 200.928919292)scale(0.12 -0.12)">
      <use xlink:href="#BitstreamVeraSans-Roman-31"/>
      <use x="63.623046875" xlink:href="#BitstreamVeraSans-Roman-30"/>
     </g>
    </g>
   </g>
   <g id="xtick_24">
    <g id="line2d_45">
     <path d="M 470.4277 152.943356 
L 475.817377 154.044099 
" style="fill:none;stroke:#000000;stroke-linecap:square;"/>
    </g>
    <g id="text_33">
     <!-- 15 -->
     <g transform="translate(484.120489608 160.479109019)scale(0.12 -0.12)">
      <use xlink:href="#BitstreamVeraSans-Roman-31"/>
      <use x="63.623046875" xlink:href="#BitstreamVeraSans-Roman-35"/>
     </g>
    </g>
   </g>
   <g id="xtick_25">
    <g id="line2d_46">
     <path d="M 472.559975 111.430323 
L 478.01998 112.499596 
" style="fill:none;stroke:#000000;stroke-linecap:square;"/>
    </g>
    <g id="text_34">
     <!-- 20 -->
     <g transform="translate(486.51777586 119.01136658)scale(0.12 -0.12)">
      <use xlink:href="#BitstreamVeraSans-Roman-32"/>
      <use x="63.623046875" xlink:href="#BitstreamVeraSans-Roman-30"/>
     </g>
    </g>
   </g>
  </g>
  <g id="axes_2">
   <g id="line2d_47">
    <path clip-path="url(#p47cbb558dc)" d="M 245.144436 237.28503 
L 265.184402 231.155763 
L 285.463613 224.720871 
L 305.990864 217.973357 
L 326.775272 210.905911 
L 347.826302 203.5109 
L 369.153774 195.780349 
L 390.767892 187.705924 
L 412.679259 179.278918 
L 434.898899 170.490225 
L 457.43828 161.330327 
L 465.286767 158.08388 
L 465.286767 158.08388 
" style="fill:none;stroke:#0000ff;stroke-linecap:square;"/>
   </g>
   <g id="line2d_48">
    <path clip-path="url(#p47cbb558dc)" d="M 201.404666 266.305192 
L 224.76914 255.212235 
L 248.371956 243.752856 
L 272.222487 231.918521 
L 296.330424 219.700335 
L 320.705794 207.089025 
L 345.358977 194.074918 
L 370.300723 180.64793 
L 394.666664 167.282306 
L 419.322386 153.512105 
L 444.278656 139.327035 
L 455.97076 132.597108 
L 455.97076 132.597108 
" style="fill:none;stroke:#008000;stroke-linecap:square;"/>
   </g>
   <g id="line2d_49">
    <path clip-path="url(#p47cbb558dc)" d="M 155.304414 296.89147 
L 183.805017 288.563789 
L 212.344619 279.990923 
L 240.929597 271.170345 
L 269.566371 262.099411 
L 298.261411 252.775353 
L 327.021238 243.195283 
L 355.852433 233.356187 
L 384.761639 223.254918 
L 413.755568 212.888201 
L 442.841006 202.252623 
L 452.892927 198.522203 
L 452.892927 198.522203 
" style="fill:none;stroke:#ff0000;stroke-linecap:square;"/>
   </g>
   <g id="line2d_50">
    <path clip-path="url(#p47cbb558dc)" d="M 288.561909 223.717405 
L 250.008758 242.948833 
" style="fill:none;stroke:#00bfbf;stroke-linecap:square;"/>
   </g>
   <g id="line2d_51">
    <path clip-path="url(#p47cbb558dc)" d="M 366.269143 196.8398 
L 332.980239 241.180962 
" style="fill:none;stroke:#bf00bf;stroke-linecap:square;"/>
   </g>
   <g id="line2d_52">
    <path clip-path="url(#p47cbb558dc)" d="M 216.443906 259.193676 
L 177.315474 290.480517 
" style="fill:none;stroke:#bfbf00;stroke-linecap:square;"/>
   </g>
   <g id="text_35">
    <!-- 相间距 -->
    <defs>
     <path d="M 33.59375 8.203125 
Q 33.984375 20.703125 33.984375 33 
Q 33.984375 45.3125 33.59375 57.421875 
L 39.453125 53.90625 
L 58.59375 53.90625 
L 62.5 57.8125 
L 67.578125 52.734375 
L 64.453125 50 
Q 64.453125 24.21875 64.84375 12.109375 
L 59.375 8.984375 
L 59.375 15.234375 
L 39.0625 15.234375 
L 39.0625 10.9375 
z
M 39.0625 51.5625 
L 39.0625 36.328125 
L 59.375 36.328125 
L 59.375 51.5625 
z
M 39.0625 33.984375 
L 39.0625 17.578125 
L 59.375 17.578125 
L 59.375 33.984375 
z
M 19.921875 81.25 
Q 28.90625 75.390625 30.46875 73.046875 
Q 32.03125 70.703125 32.03125 69.140625 
Q 32.03125 66.796875 30.46875 64.640625 
Q 28.90625 62.5 28.515625 62.5 
Q 27.34375 62.5 26.171875 66.796875 
Q 24.21875 72.65625 18.75 80.078125 
z
M 17.578125 6.640625 
Q 17.578125 0.390625 17.96875 -5.859375 
L 11.71875 -8.203125 
Q 12.109375 -2.34375 12.109375 30.46875 
Q 12.109375 63.28125 11.71875 69.140625 
L 21.09375 64.453125 
L 17.578125 62.109375 
z
M 66.015625 1.953125 
Q 78.515625 0 80.078125 0.578125 
Q 81.640625 1.171875 81.640625 3.90625 
L 81.640625 69.53125 
L 50.390625 69.53125 
Q 45.3125 69.53125 41.015625 68.359375 
L 37.5 71.875 
L 80.859375 71.875 
L 84.765625 75.78125 
L 90.234375 70.3125 
L 87.109375 67.96875 
L 87.109375 3.515625 
Q 87.109375 -1.5625 85.34375 -3.90625 
Q 83.59375 -6.25 78.125 -8.59375 
Q 75 -1.953125 66.015625 0.390625 
z
" id="SimSun-95f4"/>
     <path d="M 16.796875 71.09375 
L 16.796875 49.609375 
L 35.546875 49.609375 
L 35.546875 71.09375 
z
M 28.90625 8.59375 
L 45.3125 13.671875 
L 45.703125 12.109375 
Q 33.59375 7.03125 23.4375 3.125 
Q 12.890625 -1.171875 7.8125 -5.078125 
L 3.515625 1.5625 
L 10.546875 3.515625 
Q 10.546875 29.6875 10.15625 37.890625 
L 18.359375 33.203125 
L 15.234375 31.25 
L 15.234375 4.6875 
L 24.21875 7.421875 
L 24.21875 47.265625 
L 16.796875 47.265625 
L 16.796875 44.140625 
L 11.71875 42.1875 
Q 12.109375 50.78125 12.109375 59.5625 
Q 12.109375 68.359375 11.71875 76.5625 
L 16.796875 73.4375 
L 35.15625 73.4375 
L 38.671875 76.953125 
L 43.359375 72.265625 
L 40.234375 69.921875 
Q 40.234375 52.34375 40.625 46.875 
L 35.546875 44.140625 
L 35.546875 47.265625 
L 28.90625 47.265625 
L 28.90625 32.03125 
L 33.984375 32.03125 
L 37.890625 35.9375 
L 43.75 29.6875 
L 28.90625 29.6875 
z
M 85.15625 47.265625 
Q 85.15625 25.78125 85.546875 21.09375 
L 80.078125 18.75 
L 80.078125 24.609375 
L 54.6875 24.609375 
L 54.6875 0.390625 
L 83.984375 0.390625 
L 88.671875 5.078125 
L 95.3125 -1.953125 
L 55.46875 -1.953125 
L 51.953125 -5.46875 
L 46.09375 -0.390625 
L 49.609375 1.953125 
L 49.609375 62.109375 
Q 49.609375 67.96875 49.21875 76.5625 
L 54.6875 73.046875 
L 81.640625 73.046875 
L 85.9375 77.34375 
L 92.1875 70.703125 
L 54.6875 70.703125 
L 54.6875 51.5625 
L 79.6875 51.5625 
L 83.203125 55.078125 
L 88.28125 50 
z
M 54.6875 49.21875 
L 54.6875 26.953125 
L 80.078125 26.953125 
L 80.078125 49.21875 
z
" id="SimSun-8ddd"/>
     <path d="M 57.8125 25 
L 57.8125 3.125 
L 82.8125 3.125 
L 82.8125 25 
z
M 51.953125 -8.59375 
Q 52.34375 1.953125 52.34375 33.59375 
Q 52.34375 65.234375 51.953125 74.21875 
L 57.8125 70.3125 
L 82.03125 70.3125 
L 85.15625 74.609375 
L 91.796875 69.140625 
L 88.28125 66.40625 
Q 88.28125 4.296875 88.671875 -4.6875 
L 82.8125 -7.421875 
L 82.8125 0.78125 
L 57.8125 0.78125 
L 57.8125 -6.25 
z
M 57.8125 67.96875 
L 57.8125 48.4375 
L 82.8125 48.4375 
L 82.8125 67.96875 
z
M 57.8125 46.09375 
L 57.8125 27.34375 
L 82.8125 27.34375 
L 82.8125 46.09375 
z
M 25.78125 55.46875 
Q 25.78125 71.09375 25.390625 81.25 
L 34.375 77.34375 
L 30.859375 74.21875 
L 30.859375 55.46875 
L 38.671875 55.46875 
L 43.359375 60.546875 
L 50 53.125 
L 30.859375 53.125 
L 30.859375 43.75 
Q 38.671875 41.40625 41.59375 39.0625 
Q 44.53125 36.71875 44.53125 33.984375 
Q 44.53125 32.421875 43.75 30.078125 
Q 42.96875 27.734375 42.1875 27.734375 
Q 41.40625 27.734375 39.453125 31.640625 
Q 36.328125 37.5 30.859375 41.796875 
Q 30.859375 3.515625 31.25 -6.25 
L 25.390625 -8.984375 
Q 25.78125 15.234375 25.78125 37.109375 
Q 17.96875 19.53125 5.078125 5.859375 
L 3.90625 6.640625 
Q 19.53125 29.6875 25 53.125 
L 19.140625 53.125 
Q 14.0625 53.125 9.765625 51.953125 
L 6.25 55.46875 
z
" id="SimSun-76f8"/>
    </defs>
    <g transform="translate(274.2 65.848)scale(0.14 -0.14)">
     <use xlink:href="#SimSun-76f8"/>
     <use x="100.0" xlink:href="#SimSun-95f4"/>
     <use x="200.0" xlink:href="#SimSun-8ddd"/>
    </g>
   </g>
  </g>
 </g>
 <defs>
  <clipPath id="p47cbb558dc">
   <rect height="345.6" width="446.4" x="72.0" y="43.2"/>
  </clipPath>
 </defs>
</svg>
